<svg preserveAspectRatio="none" overflow="visible" style="display: block;" width="24" height="24" viewBox="0 0 24 24" fill="none" xmlns="http://www.w3.org/2000/svg">
<g id="fi-rr-leaf" clip-path="url(#clip0_0_103)">
<path id="Vector" d="M23.119 0.871588C22.8065 0.559776 22.4286 0.321178 22.0128 0.172984C21.5969 0.0247904 21.1533 -0.0293077 20.714 0.0145877C17.921 0.284588 8.52804 1.44759 4.90004 5.07159C3.16581 6.81054 2.13744 9.13041 2.01351 11.5832C1.88959 14.036 2.67891 16.4477 4.22904 18.3526L0.289046 22.2926C0.106888 22.4812 0.00609349 22.7338 0.0083719 22.996C0.0106503 23.2582 0.115819 23.509 0.301227 23.6944C0.486635 23.8798 0.737447 23.985 0.999644 23.9873C1.26184 23.9895 1.51444 23.8887 1.70304 23.7066L5.64304 19.7666C7.54754 21.3188 9.9599 22.1098 12.4137 21.9866C14.8676 21.8634 17.1886 20.8347 18.928 19.0996C22.604 15.4226 23.728 6.05859 23.987 3.27659C24.0294 2.83646 23.9735 2.39242 23.8234 1.97652C23.6733 1.56062 23.4327 1.18323 23.119 0.871588V0.871588ZM17.519 17.6816C16.1555 19.0401 14.3442 19.8559 12.4233 19.9768C10.5024 20.0977 8.60309 19.5154 7.08004 18.3386L16.712 8.70659C16.8942 8.51799 16.995 8.26538 16.9927 8.00319C16.9904 7.74099 16.8853 7.49018 16.6998 7.30477C16.5144 7.11936 16.2636 7.01419 16.0014 7.01191C15.7392 7.00964 15.4866 7.11043 15.298 7.29259L5.66104 16.9246C4.48402 15.4016 3.90157 13.5023 4.02247 11.5813C4.14337 9.66029 4.95936 7.84897 6.31804 6.48559C8.82704 3.97759 15.745 2.49959 20.907 2.00459C21.0532 1.99036 21.2008 2.00852 21.3392 2.05777C21.4775 2.10702 21.6034 2.18615 21.7077 2.28954C21.8121 2.39293 21.8924 2.51803 21.9429 2.65596C21.9934 2.7939 22.0129 2.94126 22 3.08759C21.5 8.47459 20.059 15.1366 17.514 17.6816H17.519Z" fill="#384259"/>
</g>
<defs>
<clipPath id="clip0_0_103">
<rect width="24" height="24" fill="white"/>
</clipPath>
</defs>
</svg>
