<svg preserveAspectRatio="none" overflow="visible" style="display: block;" width="18" height="18" viewBox="0 0 18 18" fill="none" xmlns="http://www.w3.org/2000/svg">
<g id="fi-rr-credit-card">
<g id="Vector">
<path d="M4.12506 12.7501C4.74638 12.7501 5.25006 12.2464 5.25006 11.6251C5.25006 11.0038 4.74638 10.5001 4.12506 10.5001C3.50374 10.5001 3.00006 11.0038 3.00006 11.6251C3.00006 12.2464 3.50374 12.7501 4.12506 12.7501Z" fill="#384259"/>
<path d="M5.55421 11.1704C5.56197 11.1799 5.54329 11.202 5.54565 11.2149C5.55513 11.2693 5.54326 11.2929 5.54366 11.3423C5.54834 11.4135 5.59217 11.6279 5.42017 11.6251C5.42016 11.6251 5.42016 11.6251 5.42015 11.6251C5.4185 11.6251 5.41682 11.6251 5.41512 11.6251C5.38296 11.6242 5.34772 11.6088 5.31126 11.6073C5.2748 11.6058 5.03985 11.6101 5.02617 11.595C5.00857 11.5733 5.06333 11.5118 5.05842 11.4983C5.05541 11.4897 5.0327 11.4822 5.02714 11.4721C5.00916 11.4398 5.01996 11.417 4.95611 11.4022C4.98256 11.3827 5.00844 11.3621 5.03367 11.3403C5.01515 11.3283 5.04452 11.2903 5.03841 11.2806C5.03353 11.2729 5.00914 11.2769 5.00476 11.2691C4.99975 11.2605 5.01771 11.2357 5.00622 11.2202C4.98737 11.1948 4.92842 11.2187 4.91359 11.2076C4.89831 11.1963 4.91413 11.1549 4.88298 11.1473C4.8756 11.1486 4.86825 11.15 4.86092 11.1514C4.8488 11.1616 4.83661 11.1717 4.82437 11.1817C4.81262 11.1769 4.83704 11.1554 4.8319 11.1468C4.82582 11.1366 4.79747 11.1494 4.79319 11.1432C4.78971 11.1382 4.80426 11.1167 4.79793 11.111C4.78884 11.1026 4.76265 11.1265 4.75364 11.1258C4.75016 11.125 4.70626 11.1034 4.70432 11.1022C4.69058 11.0892 4.72443 11.0547 4.71604 11.0401C4.69218 10.9995 4.63086 10.9987 4.59097 10.9879C4.57292 10.9829 4.55973 10.9705 4.54901 10.9545C4.64187 10.8669 4.63299 10.7476 4.5538 10.9264C4.55051 10.8921 4.51174 10.9302 4.4998 10.9138C4.49186 10.9031 4.49618 10.8752 4.47949 10.8681C4.44858 10.8551 4.3918 10.9152 4.42975 10.7824C4.3851 10.7919 4.36362 10.7346 4.32082 10.8494C4.31069 10.8544 4.30269 10.7783 4.29281 10.7664C4.28513 10.7544 4.20496 10.7106 4.19006 10.7088C4.17598 10.7059 4.15106 10.7029 4.13893 10.7135C4.134 10.7177 4.1295 10.7338 4.12506 10.7486C4.11536 10.7797 4.10807 10.8051 4.08649 10.706C4.05587 10.7194 4.0455 10.7161 4.01442 10.7023C4.00881 10.6999 4.00548 10.6782 4.00232 10.6786C3.99576 10.6794 3.98715 10.6969 3.97619 10.7007C3.95834 10.7068 3.93904 10.6637 3.95428 10.7325C3.94471 10.7463 3.93554 10.7603 3.92696 10.7744C3.91995 10.7621 3.91275 10.7499 3.90539 10.7377C3.90268 10.7536 3.90026 10.7695 3.89816 10.7854C3.87894 10.6848 3.85055 10.7556 3.88175 10.8074C3.85481 10.7934 3.82653 10.7807 3.79701 10.7695C3.75835 10.6598 3.74202 10.7775 3.77374 10.8328C3.77138 10.8337 3.76902 10.8347 3.76667 10.8357C3.73323 10.8171 3.72554 10.8489 3.69149 10.8442C3.65682 10.84 3.65337 10.8293 3.61794 10.7884C3.61335 10.7948 3.60885 10.8011 3.60446 10.8076C3.65524 10.9491 3.51628 10.7364 3.53005 10.8668C3.45674 10.8072 3.44442 10.881 3.44068 10.9242C3.44012 10.9293 3.45256 10.942 3.4528 10.9495C3.4533 10.9675 3.41474 10.9751 3.45795 11.0132C3.43859 11.0097 3.41898 11.0067 3.39914 11.0043C3.40118 11.018 3.40352 11.0315 3.40614 11.0449C3.42012 11.0561 3.4341 11.0674 3.44808 11.0786C3.38976 11.0534 3.39133 11.0904 3.37186 11.0928C3.36787 11.0933 3.3473 11.0794 3.33675 11.0828C3.32426 11.0867 3.31982 11.1067 3.30681 11.113C3.32749 11.1316 3.34842 11.1499 3.36959 11.1679C3.37218 11.1924 3.30595 11.1627 3.29475 11.1713C3.29257 11.1728 3.27815 11.2121 3.27879 11.2148C3.2821 11.2367 3.33934 11.2576 3.3085 11.2975C3.30304 11.3047 3.28055 11.3037 3.27688 11.3111C3.26996 11.3245 3.30294 11.3802 3.34545 11.395C3.28694 11.3944 3.29838 11.4439 3.28034 11.4531C3.27471 11.456 3.23951 11.4499 3.22971 11.4612C3.22163 11.4706 3.24572 11.5013 3.23952 11.5133C3.23269 11.5262 3.20244 11.5283 3.1997 11.5345C3.19715 11.5404 3.22074 11.548 3.22 11.556C3.21728 11.5809 3.17769 11.6028 3.17695 11.6241C3.17693 11.6245 3.17693 11.6248 3.17693 11.6251C3.17735 11.6557 3.24905 11.6786 3.28221 11.6976C3.27806 11.7035 3.26328 11.7105 3.26377 11.7165C3.26895 11.7905 3.27558 11.8749 3.28969 11.9521C3.29381 11.9862 3.25082 12.1144 3.38284 12.0166C3.41176 12.0129 3.39985 12.1187 3.41084 12.1339C3.41992 12.1483 3.45108 12.1412 3.45924 12.1509C3.48398 12.1797 3.48729 12.2154 3.53871 12.2304C3.55209 12.2341 3.58466 12.2173 3.58935 12.222C3.59497 12.2278 3.57983 12.2588 3.58707 12.2677C3.60419 12.2887 3.65024 12.3091 3.66825 12.3273C3.67149 12.3308 3.65699 12.3562 3.65798 12.3677C3.66189 12.4125 3.692 12.4254 3.73183 12.3408C3.73528 12.4032 3.78583 12.3737 3.81352 12.3818C3.87184 12.4018 3.98172 12.4504 4.04036 12.4153C4.07666 12.3937 4.07599 12.3523 4.12294 12.3892C4.12365 12.3897 4.12435 12.3903 4.12506 12.3908C4.13511 12.3986 4.14552 12.4085 4.15832 12.4169C4.18914 12.4383 4.23125 12.5116 4.24254 12.4157C4.28155 12.4343 4.30405 12.4118 4.35116 12.4819C4.34957 12.4626 4.34776 12.4432 4.34573 12.424C4.34988 12.4223 4.354 12.4207 4.3581 12.419C4.36454 12.4361 4.37108 12.4532 4.37769 12.4702C4.41274 12.465 4.42554 12.3801 4.44867 12.3705C4.4896 12.356 4.6033 12.3226 4.65368 12.3122C4.68081 12.3076 4.65633 12.277 4.7188 12.3294C4.71952 12.3215 4.72013 12.3136 4.72062 12.3057C4.71165 12.2902 4.70252 12.2748 4.69322 12.2596C4.71486 12.2394 4.75971 12.233 4.77936 12.2106C4.81639 12.1692 4.82179 12.0789 4.87405 12.0498C4.88747 12.0425 4.92752 12.0445 4.93336 12.0319C4.9418 12.0137 4.88952 11.9838 4.89785 11.9622C4.91239 11.9267 5.00337 11.8742 5.00712 11.8311C5.00836 11.8188 4.98762 11.8086 4.98689 11.8002C4.98346 11.7651 4.98927 11.7369 4.95776 11.7022C5.018 11.6735 5.09178 11.6789 5.16744 11.6699C5.22458 11.6636 5.3565 11.632 5.40601 11.6257C5.44089 11.6219 5.48571 11.6364 5.52411 11.6312C5.55403 11.6988 5.51786 11.7283 5.45882 11.7743C5.45034 11.8705 5.43133 11.9663 5.40208 12.059C5.3794 12.0607 5.35677 12.0619 5.33421 12.0627C5.33417 12.0627 5.33412 12.0626 5.33408 12.0626C5.2993 12.0873 5.34371 12.1207 5.3472 12.1441C5.38921 12.3789 5.05322 12.6521 4.86877 12.7396C4.83163 12.7639 4.71284 12.8603 4.6693 12.8402C4.65833 12.8354 4.64335 12.8067 4.63523 12.8087C4.57514 12.8555 4.50941 12.8979 4.43888 12.9345C4.33028 12.9264 4.2302 12.9448 4.12506 12.9555C4.07054 12.9611 4.01556 12.9643 3.96099 12.9604C3.52964 12.9333 3.10702 12.6745 2.90715 12.2827C2.86816 12.2087 2.80378 12.1171 2.79471 12.0321C2.79086 11.9966 2.83719 11.9703 2.78933 11.9362C2.80284 11.9326 2.81635 11.929 2.82987 11.9254C2.80503 11.8921 2.76891 11.8735 2.75898 11.83C2.74992 11.7939 2.73954 11.695 2.74494 11.6623C2.74722 11.6453 2.77345 11.6511 2.77315 11.6356C2.77307 11.6325 2.77253 11.629 2.77163 11.6251C2.76461 11.5961 2.73821 11.5461 2.74109 11.5125C2.74357 11.4781 2.78077 11.4253 2.78094 11.3994C2.78054 11.3062 2.76556 11.1911 2.81557 11.0992C2.82928 11.0738 2.87504 11.0547 2.87779 11.0467C2.88312 11.0307 2.85575 11.0118 2.85714 10.9994C2.86412 10.9356 2.94559 10.8748 2.97956 10.8299C3.08915 10.6798 3.22567 10.5305 3.38842 10.4372C3.48838 10.3757 3.66986 10.2936 3.78124 10.2936C3.80493 10.2931 3.80746 10.3297 3.82575 10.3254C3.84597 10.3207 3.85229 10.2947 3.86166 10.2908C3.91963 10.2651 4.05152 10.2297 4.12506 10.2461C4.13249 10.2476 4.13926 10.2495 4.14525 10.2519C4.15772 10.2569 4.1658 10.2854 4.173 10.2855C4.17666 10.2857 4.18572 10.2667 4.1976 10.2654C4.30258 10.2541 4.3786 10.2775 4.47521 10.3094C4.65861 10.3689 4.88216 10.4456 5.02514 10.5986C5.05635 10.6317 5.03852 10.693 5.04304 10.6966C5.05313 10.7051 5.08589 10.6845 5.11177 10.6984C5.19897 10.7454 5.24234 10.8709 5.30146 10.9366C5.33145 10.9689 5.40209 11.0017 5.43024 11.0391C5.45358 11.0687 5.46611 11.1548 5.49046 11.1633C5.50556 11.1685 5.54563 11.1602 5.55421 11.1704ZM4.47471 10.8314C4.5045 10.7734 4.4444 10.8067 4.44574 10.8451C4.4458 10.8535 4.46688 10.8464 4.47471 10.8314ZM3.16865 11.839C3.18667 11.8346 3.2047 11.8301 3.22273 11.8258C3.21396 11.8218 3.2052 11.8177 3.19648 11.8135C3.18619 11.819 3.17595 11.8245 3.16575 11.8302C3.16671 11.8331 3.16767 11.8361 3.16865 11.839Z" fill="#384259"/>
</g>
<path id="Vector_2" d="M14.25 2.24999H3.75C2.7558 2.25119 1.80267 2.64666 1.09966 3.34966C0.396661 4.05266 0.00119089 5.0058 0 5.99999L0 12C0.00119089 12.9942 0.396661 13.9473 1.09966 14.6503C1.80267 15.3533 2.7558 15.7488 3.75 15.75H14.25C15.2442 15.7488 16.1973 15.3533 16.9003 14.6503C17.6033 13.9473 17.9988 12.9942 18 12V5.99999C17.9988 5.0058 17.6033 4.05266 16.9003 3.34966C16.1973 2.64666 15.2442 2.25119 14.25 2.24999V2.24999ZM3.75 3.74999H14.25C14.8467 3.74999 15.419 3.98705 15.841 4.409C16.2629 4.83096 16.5 5.40326 16.5 5.99999H1.5C1.5 5.40326 1.73705 4.83096 2.15901 4.409C2.58097 3.98705 3.15326 3.74999 3.75 3.74999V3.74999ZM14.25 14.25H3.75C3.15326 14.25 2.58097 14.0129 2.15901 13.591C1.73705 13.169 1.5 12.5967 1.5 12V7.49999H16.5V12C16.5 12.5967 16.2629 13.169 15.841 13.591C15.419 14.0129 14.8467 14.25 14.25 14.25Z" fill="#384259"/>
</g>
</svg>
